<mxfile host="app.diagrams.net" modified="2022-12-25T07:55:10.213Z" agent="5.0 (Macintosh; Intel Mac OS X 10_15_7) AppleWebKit/537.36 (KHTML, like Gecko) Chrome/107.0.0.0 Safari/537.36" etag="P1_ndBeFN-GZg_Kaz3_Q" version="20.7.4" type="github">
  <diagram id="R2lEEEUBdFMjLlhIrx00" name="Page-1">
    <mxGraphModel dx="2440" dy="1080" grid="1" gridSize="10" guides="1" tooltips="1" connect="1" arrows="1" fold="1" page="1" pageScale="1" pageWidth="850" pageHeight="1100" math="0" shadow="0" extFonts="Permanent Marker^https://fonts.googleapis.com/css?family=Permanent+Marker">
      <root>
        <mxCell id="0" />
        <mxCell id="1" parent="0" />
        <mxCell id="maEfQ9gUSx-SkMScM4f4-45" value="users" style="shape=table;startSize=30;container=1;collapsible=1;childLayout=tableLayout;fixedRows=1;rowLines=0;fontStyle=1;align=center;resizeLast=1;rounded=0;shadow=0;sketch=0;strokeColor=default;strokeWidth=1;" vertex="1" parent="1">
          <mxGeometry x="-800" y="70" width="180" height="210" as="geometry" />
        </mxCell>
        <mxCell id="maEfQ9gUSx-SkMScM4f4-46" value="" style="shape=tableRow;horizontal=0;startSize=0;swimlaneHead=0;swimlaneBody=0;fillColor=none;collapsible=0;dropTarget=0;points=[[0,0.5],[1,0.5]];portConstraint=eastwest;top=0;left=0;right=0;bottom=1;rounded=0;shadow=0;sketch=0;strokeColor=default;strokeWidth=1;" vertex="1" parent="maEfQ9gUSx-SkMScM4f4-45">
          <mxGeometry y="30" width="180" height="30" as="geometry" />
        </mxCell>
        <mxCell id="maEfQ9gUSx-SkMScM4f4-47" value="PK" style="shape=partialRectangle;connectable=0;fillColor=none;top=0;left=0;bottom=0;right=0;fontStyle=1;overflow=hidden;rounded=0;shadow=0;sketch=0;strokeColor=default;strokeWidth=1;" vertex="1" parent="maEfQ9gUSx-SkMScM4f4-46">
          <mxGeometry width="30" height="30" as="geometry">
            <mxRectangle width="30" height="30" as="alternateBounds" />
          </mxGeometry>
        </mxCell>
        <mxCell id="maEfQ9gUSx-SkMScM4f4-48" value="ユーザーID" style="shape=partialRectangle;connectable=0;fillColor=none;top=0;left=0;bottom=0;right=0;align=left;spacingLeft=6;fontStyle=5;overflow=hidden;rounded=0;shadow=0;sketch=0;strokeColor=default;strokeWidth=1;" vertex="1" parent="maEfQ9gUSx-SkMScM4f4-46">
          <mxGeometry x="30" width="150" height="30" as="geometry">
            <mxRectangle width="150" height="30" as="alternateBounds" />
          </mxGeometry>
        </mxCell>
        <mxCell id="maEfQ9gUSx-SkMScM4f4-49" value="" style="shape=tableRow;horizontal=0;startSize=0;swimlaneHead=0;swimlaneBody=0;fillColor=none;collapsible=0;dropTarget=0;points=[[0,0.5],[1,0.5]];portConstraint=eastwest;top=0;left=0;right=0;bottom=0;rounded=0;shadow=0;sketch=0;strokeColor=default;strokeWidth=1;" vertex="1" parent="maEfQ9gUSx-SkMScM4f4-45">
          <mxGeometry y="60" width="180" height="30" as="geometry" />
        </mxCell>
        <mxCell id="maEfQ9gUSx-SkMScM4f4-50" value="" style="shape=partialRectangle;connectable=0;fillColor=none;top=0;left=0;bottom=0;right=0;editable=1;overflow=hidden;rounded=0;shadow=0;sketch=0;strokeColor=default;strokeWidth=1;" vertex="1" parent="maEfQ9gUSx-SkMScM4f4-49">
          <mxGeometry width="30" height="30" as="geometry">
            <mxRectangle width="30" height="30" as="alternateBounds" />
          </mxGeometry>
        </mxCell>
        <mxCell id="maEfQ9gUSx-SkMScM4f4-51" value="ユーザー名" style="shape=partialRectangle;connectable=0;fillColor=none;top=0;left=0;bottom=0;right=0;align=left;spacingLeft=6;overflow=hidden;rounded=0;shadow=0;sketch=0;strokeColor=default;strokeWidth=1;" vertex="1" parent="maEfQ9gUSx-SkMScM4f4-49">
          <mxGeometry x="30" width="150" height="30" as="geometry">
            <mxRectangle width="150" height="30" as="alternateBounds" />
          </mxGeometry>
        </mxCell>
        <mxCell id="maEfQ9gUSx-SkMScM4f4-52" value="" style="shape=tableRow;horizontal=0;startSize=0;swimlaneHead=0;swimlaneBody=0;fillColor=none;collapsible=0;dropTarget=0;points=[[0,0.5],[1,0.5]];portConstraint=eastwest;top=0;left=0;right=0;bottom=0;rounded=0;shadow=0;sketch=0;strokeColor=default;strokeWidth=1;" vertex="1" parent="maEfQ9gUSx-SkMScM4f4-45">
          <mxGeometry y="90" width="180" height="30" as="geometry" />
        </mxCell>
        <mxCell id="maEfQ9gUSx-SkMScM4f4-53" value="" style="shape=partialRectangle;connectable=0;fillColor=none;top=0;left=0;bottom=0;right=0;editable=1;overflow=hidden;rounded=0;shadow=0;sketch=0;strokeColor=default;strokeWidth=1;" vertex="1" parent="maEfQ9gUSx-SkMScM4f4-52">
          <mxGeometry width="30" height="30" as="geometry">
            <mxRectangle width="30" height="30" as="alternateBounds" />
          </mxGeometry>
        </mxCell>
        <mxCell id="maEfQ9gUSx-SkMScM4f4-54" value="メールアドレス" style="shape=partialRectangle;connectable=0;fillColor=none;top=0;left=0;bottom=0;right=0;align=left;spacingLeft=6;overflow=hidden;rounded=0;shadow=0;sketch=0;strokeColor=default;strokeWidth=1;" vertex="1" parent="maEfQ9gUSx-SkMScM4f4-52">
          <mxGeometry x="30" width="150" height="30" as="geometry">
            <mxRectangle width="150" height="30" as="alternateBounds" />
          </mxGeometry>
        </mxCell>
        <mxCell id="maEfQ9gUSx-SkMScM4f4-181" style="shape=tableRow;horizontal=0;startSize=0;swimlaneHead=0;swimlaneBody=0;fillColor=none;collapsible=0;dropTarget=0;points=[[0,0.5],[1,0.5]];portConstraint=eastwest;top=0;left=0;right=0;bottom=0;rounded=0;shadow=0;sketch=0;strokeColor=default;strokeWidth=1;" vertex="1" parent="maEfQ9gUSx-SkMScM4f4-45">
          <mxGeometry y="120" width="180" height="30" as="geometry" />
        </mxCell>
        <mxCell id="maEfQ9gUSx-SkMScM4f4-182" style="shape=partialRectangle;connectable=0;fillColor=none;top=0;left=0;bottom=0;right=0;editable=1;overflow=hidden;rounded=0;shadow=0;sketch=0;strokeColor=default;strokeWidth=1;" vertex="1" parent="maEfQ9gUSx-SkMScM4f4-181">
          <mxGeometry width="30" height="30" as="geometry">
            <mxRectangle width="30" height="30" as="alternateBounds" />
          </mxGeometry>
        </mxCell>
        <mxCell id="maEfQ9gUSx-SkMScM4f4-183" value="権限ステータス" style="shape=partialRectangle;connectable=0;fillColor=none;top=0;left=0;bottom=0;right=0;align=left;spacingLeft=6;overflow=hidden;rounded=0;shadow=0;sketch=0;strokeColor=default;strokeWidth=1;" vertex="1" parent="maEfQ9gUSx-SkMScM4f4-181">
          <mxGeometry x="30" width="150" height="30" as="geometry">
            <mxRectangle width="150" height="30" as="alternateBounds" />
          </mxGeometry>
        </mxCell>
        <mxCell id="maEfQ9gUSx-SkMScM4f4-99" style="shape=tableRow;horizontal=0;startSize=0;swimlaneHead=0;swimlaneBody=0;fillColor=none;collapsible=0;dropTarget=0;points=[[0,0.5],[1,0.5]];portConstraint=eastwest;top=0;left=0;right=0;bottom=0;rounded=0;shadow=0;sketch=0;strokeColor=default;strokeWidth=1;" vertex="1" parent="maEfQ9gUSx-SkMScM4f4-45">
          <mxGeometry y="150" width="180" height="30" as="geometry" />
        </mxCell>
        <mxCell id="maEfQ9gUSx-SkMScM4f4-100" style="shape=partialRectangle;connectable=0;fillColor=none;top=0;left=0;bottom=0;right=0;editable=1;overflow=hidden;rounded=0;shadow=0;sketch=0;strokeColor=default;strokeWidth=1;" vertex="1" parent="maEfQ9gUSx-SkMScM4f4-99">
          <mxGeometry width="30" height="30" as="geometry">
            <mxRectangle width="30" height="30" as="alternateBounds" />
          </mxGeometry>
        </mxCell>
        <mxCell id="maEfQ9gUSx-SkMScM4f4-101" value="crypted_password" style="shape=partialRectangle;connectable=0;fillColor=none;top=0;left=0;bottom=0;right=0;align=left;spacingLeft=6;overflow=hidden;rounded=0;shadow=0;sketch=0;strokeColor=default;strokeWidth=1;" vertex="1" parent="maEfQ9gUSx-SkMScM4f4-99">
          <mxGeometry x="30" width="150" height="30" as="geometry">
            <mxRectangle width="150" height="30" as="alternateBounds" />
          </mxGeometry>
        </mxCell>
        <mxCell id="maEfQ9gUSx-SkMScM4f4-102" style="shape=tableRow;horizontal=0;startSize=0;swimlaneHead=0;swimlaneBody=0;fillColor=none;collapsible=0;dropTarget=0;points=[[0,0.5],[1,0.5]];portConstraint=eastwest;top=0;left=0;right=0;bottom=0;rounded=0;shadow=0;sketch=0;strokeColor=default;strokeWidth=1;" vertex="1" parent="maEfQ9gUSx-SkMScM4f4-45">
          <mxGeometry y="180" width="180" height="30" as="geometry" />
        </mxCell>
        <mxCell id="maEfQ9gUSx-SkMScM4f4-103" style="shape=partialRectangle;connectable=0;fillColor=none;top=0;left=0;bottom=0;right=0;editable=1;overflow=hidden;rounded=0;shadow=0;sketch=0;strokeColor=default;strokeWidth=1;" vertex="1" parent="maEfQ9gUSx-SkMScM4f4-102">
          <mxGeometry width="30" height="30" as="geometry">
            <mxRectangle width="30" height="30" as="alternateBounds" />
          </mxGeometry>
        </mxCell>
        <mxCell id="maEfQ9gUSx-SkMScM4f4-104" value="salt" style="shape=partialRectangle;connectable=0;fillColor=none;top=0;left=0;bottom=0;right=0;align=left;spacingLeft=6;overflow=hidden;rounded=0;shadow=0;sketch=0;strokeColor=default;strokeWidth=1;" vertex="1" parent="maEfQ9gUSx-SkMScM4f4-102">
          <mxGeometry x="30" width="150" height="30" as="geometry">
            <mxRectangle width="150" height="30" as="alternateBounds" />
          </mxGeometry>
        </mxCell>
        <mxCell id="maEfQ9gUSx-SkMScM4f4-80" value="posts" style="shape=table;startSize=30;container=1;collapsible=1;childLayout=tableLayout;fixedRows=1;rowLines=0;fontStyle=1;align=center;resizeLast=1;rounded=0;shadow=0;sketch=0;strokeColor=default;strokeWidth=1;" vertex="1" parent="1">
          <mxGeometry x="-280" y="40" width="180" height="270" as="geometry" />
        </mxCell>
        <mxCell id="maEfQ9gUSx-SkMScM4f4-81" value="" style="shape=tableRow;horizontal=0;startSize=0;swimlaneHead=0;swimlaneBody=0;fillColor=none;collapsible=0;dropTarget=0;points=[[0,0.5],[1,0.5]];portConstraint=eastwest;top=0;left=0;right=0;bottom=1;rounded=0;shadow=0;sketch=0;strokeColor=default;strokeWidth=1;" vertex="1" parent="maEfQ9gUSx-SkMScM4f4-80">
          <mxGeometry y="30" width="180" height="30" as="geometry" />
        </mxCell>
        <mxCell id="maEfQ9gUSx-SkMScM4f4-82" value="PK" style="shape=partialRectangle;connectable=0;fillColor=none;top=0;left=0;bottom=0;right=0;fontStyle=1;overflow=hidden;rounded=0;shadow=0;sketch=0;strokeColor=default;strokeWidth=1;" vertex="1" parent="maEfQ9gUSx-SkMScM4f4-81">
          <mxGeometry width="30" height="30" as="geometry">
            <mxRectangle width="30" height="30" as="alternateBounds" />
          </mxGeometry>
        </mxCell>
        <mxCell id="maEfQ9gUSx-SkMScM4f4-83" value="投稿ID" style="shape=partialRectangle;connectable=0;fillColor=none;top=0;left=0;bottom=0;right=0;align=left;spacingLeft=6;fontStyle=5;overflow=hidden;rounded=0;shadow=0;sketch=0;strokeColor=default;strokeWidth=1;" vertex="1" parent="maEfQ9gUSx-SkMScM4f4-81">
          <mxGeometry x="30" width="150" height="30" as="geometry">
            <mxRectangle width="150" height="30" as="alternateBounds" />
          </mxGeometry>
        </mxCell>
        <mxCell id="maEfQ9gUSx-SkMScM4f4-84" value="" style="shape=tableRow;horizontal=0;startSize=0;swimlaneHead=0;swimlaneBody=0;fillColor=none;collapsible=0;dropTarget=0;points=[[0,0.5],[1,0.5]];portConstraint=eastwest;top=0;left=0;right=0;bottom=0;rounded=0;shadow=0;sketch=0;strokeColor=default;strokeWidth=1;" vertex="1" parent="maEfQ9gUSx-SkMScM4f4-80">
          <mxGeometry y="60" width="180" height="30" as="geometry" />
        </mxCell>
        <mxCell id="maEfQ9gUSx-SkMScM4f4-85" value="FK1" style="shape=partialRectangle;connectable=0;fillColor=none;top=0;left=0;bottom=0;right=0;editable=1;overflow=hidden;rounded=0;shadow=0;sketch=0;strokeColor=default;strokeWidth=1;" vertex="1" parent="maEfQ9gUSx-SkMScM4f4-84">
          <mxGeometry width="30" height="30" as="geometry">
            <mxRectangle width="30" height="30" as="alternateBounds" />
          </mxGeometry>
        </mxCell>
        <mxCell id="maEfQ9gUSx-SkMScM4f4-86" value="ユーザー_ID" style="shape=partialRectangle;connectable=0;fillColor=none;top=0;left=0;bottom=0;right=0;align=left;spacingLeft=6;overflow=hidden;rounded=0;shadow=0;sketch=0;strokeColor=default;strokeWidth=1;" vertex="1" parent="maEfQ9gUSx-SkMScM4f4-84">
          <mxGeometry x="30" width="150" height="30" as="geometry">
            <mxRectangle width="150" height="30" as="alternateBounds" />
          </mxGeometry>
        </mxCell>
        <mxCell id="maEfQ9gUSx-SkMScM4f4-87" value="" style="shape=tableRow;horizontal=0;startSize=0;swimlaneHead=0;swimlaneBody=0;fillColor=none;collapsible=0;dropTarget=0;points=[[0,0.5],[1,0.5]];portConstraint=eastwest;top=0;left=0;right=0;bottom=0;rounded=0;shadow=0;sketch=0;strokeColor=default;strokeWidth=1;" vertex="1" parent="maEfQ9gUSx-SkMScM4f4-80">
          <mxGeometry y="90" width="180" height="30" as="geometry" />
        </mxCell>
        <mxCell id="maEfQ9gUSx-SkMScM4f4-88" value="" style="shape=partialRectangle;connectable=0;fillColor=none;top=0;left=0;bottom=0;right=0;editable=1;overflow=hidden;rounded=0;shadow=0;sketch=0;strokeColor=default;strokeWidth=1;" vertex="1" parent="maEfQ9gUSx-SkMScM4f4-87">
          <mxGeometry width="30" height="30" as="geometry">
            <mxRectangle width="30" height="30" as="alternateBounds" />
          </mxGeometry>
        </mxCell>
        <mxCell id="maEfQ9gUSx-SkMScM4f4-89" value="投稿名" style="shape=partialRectangle;connectable=0;fillColor=none;top=0;left=0;bottom=0;right=0;align=left;spacingLeft=6;overflow=hidden;rounded=0;shadow=0;sketch=0;strokeColor=default;strokeWidth=1;" vertex="1" parent="maEfQ9gUSx-SkMScM4f4-87">
          <mxGeometry x="30" width="150" height="30" as="geometry">
            <mxRectangle width="150" height="30" as="alternateBounds" />
          </mxGeometry>
        </mxCell>
        <mxCell id="maEfQ9gUSx-SkMScM4f4-90" style="shape=tableRow;horizontal=0;startSize=0;swimlaneHead=0;swimlaneBody=0;fillColor=none;collapsible=0;dropTarget=0;points=[[0,0.5],[1,0.5]];portConstraint=eastwest;top=0;left=0;right=0;bottom=0;rounded=0;shadow=0;sketch=0;strokeColor=default;strokeWidth=1;" vertex="1" parent="maEfQ9gUSx-SkMScM4f4-80">
          <mxGeometry y="120" width="180" height="30" as="geometry" />
        </mxCell>
        <mxCell id="maEfQ9gUSx-SkMScM4f4-91" style="shape=partialRectangle;connectable=0;fillColor=none;top=0;left=0;bottom=0;right=0;editable=1;overflow=hidden;rounded=0;shadow=0;sketch=0;strokeColor=default;strokeWidth=1;" vertex="1" parent="maEfQ9gUSx-SkMScM4f4-90">
          <mxGeometry width="30" height="30" as="geometry">
            <mxRectangle width="30" height="30" as="alternateBounds" />
          </mxGeometry>
        </mxCell>
        <mxCell id="maEfQ9gUSx-SkMScM4f4-92" value="画像" style="shape=partialRectangle;connectable=0;fillColor=none;top=0;left=0;bottom=0;right=0;align=left;spacingLeft=6;overflow=hidden;rounded=0;shadow=0;sketch=0;strokeColor=default;strokeWidth=1;" vertex="1" parent="maEfQ9gUSx-SkMScM4f4-90">
          <mxGeometry x="30" width="150" height="30" as="geometry">
            <mxRectangle width="150" height="30" as="alternateBounds" />
          </mxGeometry>
        </mxCell>
        <mxCell id="maEfQ9gUSx-SkMScM4f4-93" style="shape=tableRow;horizontal=0;startSize=0;swimlaneHead=0;swimlaneBody=0;fillColor=none;collapsible=0;dropTarget=0;points=[[0,0.5],[1,0.5]];portConstraint=eastwest;top=0;left=0;right=0;bottom=0;rounded=0;shadow=0;sketch=0;strokeColor=default;strokeWidth=1;" vertex="1" parent="maEfQ9gUSx-SkMScM4f4-80">
          <mxGeometry y="150" width="180" height="30" as="geometry" />
        </mxCell>
        <mxCell id="maEfQ9gUSx-SkMScM4f4-94" style="shape=partialRectangle;connectable=0;fillColor=none;top=0;left=0;bottom=0;right=0;editable=1;overflow=hidden;rounded=0;shadow=0;sketch=0;strokeColor=default;strokeWidth=1;" vertex="1" parent="maEfQ9gUSx-SkMScM4f4-93">
          <mxGeometry width="30" height="30" as="geometry">
            <mxRectangle width="30" height="30" as="alternateBounds" />
          </mxGeometry>
        </mxCell>
        <mxCell id="maEfQ9gUSx-SkMScM4f4-95" value="詳細情報" style="shape=partialRectangle;connectable=0;fillColor=none;top=0;left=0;bottom=0;right=0;align=left;spacingLeft=6;overflow=hidden;rounded=0;shadow=0;sketch=0;strokeColor=default;strokeWidth=1;" vertex="1" parent="maEfQ9gUSx-SkMScM4f4-93">
          <mxGeometry x="30" width="150" height="30" as="geometry">
            <mxRectangle width="150" height="30" as="alternateBounds" />
          </mxGeometry>
        </mxCell>
        <mxCell id="maEfQ9gUSx-SkMScM4f4-96" style="shape=tableRow;horizontal=0;startSize=0;swimlaneHead=0;swimlaneBody=0;fillColor=none;collapsible=0;dropTarget=0;points=[[0,0.5],[1,0.5]];portConstraint=eastwest;top=0;left=0;right=0;bottom=0;rounded=0;shadow=0;sketch=0;strokeColor=default;strokeWidth=1;" vertex="1" parent="maEfQ9gUSx-SkMScM4f4-80">
          <mxGeometry y="180" width="180" height="30" as="geometry" />
        </mxCell>
        <mxCell id="maEfQ9gUSx-SkMScM4f4-97" style="shape=partialRectangle;connectable=0;fillColor=none;top=0;left=0;bottom=0;right=0;editable=1;overflow=hidden;rounded=0;shadow=0;sketch=0;strokeColor=default;strokeWidth=1;" vertex="1" parent="maEfQ9gUSx-SkMScM4f4-96">
          <mxGeometry width="30" height="30" as="geometry">
            <mxRectangle width="30" height="30" as="alternateBounds" />
          </mxGeometry>
        </mxCell>
        <mxCell id="maEfQ9gUSx-SkMScM4f4-98" value="カテゴリ_ID" style="shape=partialRectangle;connectable=0;fillColor=none;top=0;left=0;bottom=0;right=0;align=left;spacingLeft=6;overflow=hidden;rounded=0;shadow=0;sketch=0;strokeColor=default;strokeWidth=1;" vertex="1" parent="maEfQ9gUSx-SkMScM4f4-96">
          <mxGeometry x="30" width="150" height="30" as="geometry">
            <mxRectangle width="150" height="30" as="alternateBounds" />
          </mxGeometry>
        </mxCell>
        <mxCell id="maEfQ9gUSx-SkMScM4f4-105" style="shape=tableRow;horizontal=0;startSize=0;swimlaneHead=0;swimlaneBody=0;fillColor=none;collapsible=0;dropTarget=0;points=[[0,0.5],[1,0.5]];portConstraint=eastwest;top=0;left=0;right=0;bottom=0;rounded=0;shadow=0;sketch=0;strokeColor=default;strokeWidth=1;" vertex="1" parent="maEfQ9gUSx-SkMScM4f4-80">
          <mxGeometry y="210" width="180" height="30" as="geometry" />
        </mxCell>
        <mxCell id="maEfQ9gUSx-SkMScM4f4-106" style="shape=partialRectangle;connectable=0;fillColor=none;top=0;left=0;bottom=0;right=0;editable=1;overflow=hidden;rounded=0;shadow=0;sketch=0;strokeColor=default;strokeWidth=1;" vertex="1" parent="maEfQ9gUSx-SkMScM4f4-105">
          <mxGeometry width="30" height="30" as="geometry">
            <mxRectangle width="30" height="30" as="alternateBounds" />
          </mxGeometry>
        </mxCell>
        <mxCell id="maEfQ9gUSx-SkMScM4f4-107" value="期限" style="shape=partialRectangle;connectable=0;fillColor=none;top=0;left=0;bottom=0;right=0;align=left;spacingLeft=6;overflow=hidden;rounded=0;shadow=0;sketch=0;strokeColor=default;strokeWidth=1;" vertex="1" parent="maEfQ9gUSx-SkMScM4f4-105">
          <mxGeometry x="30" width="150" height="30" as="geometry">
            <mxRectangle width="150" height="30" as="alternateBounds" />
          </mxGeometry>
        </mxCell>
        <mxCell id="maEfQ9gUSx-SkMScM4f4-184" style="shape=tableRow;horizontal=0;startSize=0;swimlaneHead=0;swimlaneBody=0;fillColor=none;collapsible=0;dropTarget=0;points=[[0,0.5],[1,0.5]];portConstraint=eastwest;top=0;left=0;right=0;bottom=0;rounded=0;shadow=0;sketch=0;strokeColor=default;strokeWidth=1;" vertex="1" parent="maEfQ9gUSx-SkMScM4f4-80">
          <mxGeometry y="240" width="180" height="30" as="geometry" />
        </mxCell>
        <mxCell id="maEfQ9gUSx-SkMScM4f4-185" style="shape=partialRectangle;connectable=0;fillColor=none;top=0;left=0;bottom=0;right=0;editable=1;overflow=hidden;rounded=0;shadow=0;sketch=0;strokeColor=default;strokeWidth=1;" vertex="1" parent="maEfQ9gUSx-SkMScM4f4-184">
          <mxGeometry width="30" height="30" as="geometry">
            <mxRectangle width="30" height="30" as="alternateBounds" />
          </mxGeometry>
        </mxCell>
        <mxCell id="maEfQ9gUSx-SkMScM4f4-186" value="投稿ステータス" style="shape=partialRectangle;connectable=0;fillColor=none;top=0;left=0;bottom=0;right=0;align=left;spacingLeft=6;overflow=hidden;rounded=0;shadow=0;sketch=0;strokeColor=default;strokeWidth=1;" vertex="1" parent="maEfQ9gUSx-SkMScM4f4-184">
          <mxGeometry x="30" width="150" height="30" as="geometry">
            <mxRectangle width="150" height="30" as="alternateBounds" />
          </mxGeometry>
        </mxCell>
        <mxCell id="maEfQ9gUSx-SkMScM4f4-215" style="edgeStyle=orthogonalEdgeStyle;rounded=0;orthogonalLoop=1;jettySize=auto;html=1;endArrow=ERmany;endFill=0;" edge="1" parent="1" source="maEfQ9gUSx-SkMScM4f4-108" target="maEfQ9gUSx-SkMScM4f4-212">
          <mxGeometry relative="1" as="geometry" />
        </mxCell>
        <mxCell id="maEfQ9gUSx-SkMScM4f4-108" value="categories" style="shape=table;startSize=30;container=1;collapsible=1;childLayout=tableLayout;fixedRows=1;rowLines=0;fontStyle=1;align=center;resizeLast=1;rounded=0;shadow=0;sketch=0;strokeColor=default;strokeWidth=1;" vertex="1" parent="1">
          <mxGeometry x="230" y="70" width="180" height="90" as="geometry" />
        </mxCell>
        <mxCell id="maEfQ9gUSx-SkMScM4f4-109" value="" style="shape=tableRow;horizontal=0;startSize=0;swimlaneHead=0;swimlaneBody=0;fillColor=none;collapsible=0;dropTarget=0;points=[[0,0.5],[1,0.5]];portConstraint=eastwest;top=0;left=0;right=0;bottom=1;rounded=0;shadow=0;sketch=0;strokeColor=default;strokeWidth=1;" vertex="1" parent="maEfQ9gUSx-SkMScM4f4-108">
          <mxGeometry y="30" width="180" height="30" as="geometry" />
        </mxCell>
        <mxCell id="maEfQ9gUSx-SkMScM4f4-110" value="PK" style="shape=partialRectangle;connectable=0;fillColor=none;top=0;left=0;bottom=0;right=0;fontStyle=1;overflow=hidden;rounded=0;shadow=0;sketch=0;strokeColor=default;strokeWidth=1;" vertex="1" parent="maEfQ9gUSx-SkMScM4f4-109">
          <mxGeometry width="30" height="30" as="geometry">
            <mxRectangle width="30" height="30" as="alternateBounds" />
          </mxGeometry>
        </mxCell>
        <mxCell id="maEfQ9gUSx-SkMScM4f4-111" value="カテゴリーID" style="shape=partialRectangle;connectable=0;fillColor=none;top=0;left=0;bottom=0;right=0;align=left;spacingLeft=6;fontStyle=5;overflow=hidden;rounded=0;shadow=0;sketch=0;strokeColor=default;strokeWidth=1;" vertex="1" parent="maEfQ9gUSx-SkMScM4f4-109">
          <mxGeometry x="30" width="150" height="30" as="geometry">
            <mxRectangle width="150" height="30" as="alternateBounds" />
          </mxGeometry>
        </mxCell>
        <mxCell id="maEfQ9gUSx-SkMScM4f4-112" value="" style="shape=tableRow;horizontal=0;startSize=0;swimlaneHead=0;swimlaneBody=0;fillColor=none;collapsible=0;dropTarget=0;points=[[0,0.5],[1,0.5]];portConstraint=eastwest;top=0;left=0;right=0;bottom=0;rounded=0;shadow=0;sketch=0;strokeColor=default;strokeWidth=1;" vertex="1" parent="maEfQ9gUSx-SkMScM4f4-108">
          <mxGeometry y="60" width="180" height="30" as="geometry" />
        </mxCell>
        <mxCell id="maEfQ9gUSx-SkMScM4f4-113" value="" style="shape=partialRectangle;connectable=0;fillColor=none;top=0;left=0;bottom=0;right=0;editable=1;overflow=hidden;rounded=0;shadow=0;sketch=0;strokeColor=default;strokeWidth=1;" vertex="1" parent="maEfQ9gUSx-SkMScM4f4-112">
          <mxGeometry width="30" height="30" as="geometry">
            <mxRectangle width="30" height="30" as="alternateBounds" />
          </mxGeometry>
        </mxCell>
        <mxCell id="maEfQ9gUSx-SkMScM4f4-114" value="カテゴリー名" style="shape=partialRectangle;connectable=0;fillColor=none;top=0;left=0;bottom=0;right=0;align=left;spacingLeft=6;overflow=hidden;rounded=0;shadow=0;sketch=0;strokeColor=default;strokeWidth=1;" vertex="1" parent="maEfQ9gUSx-SkMScM4f4-112">
          <mxGeometry x="30" width="150" height="30" as="geometry">
            <mxRectangle width="150" height="30" as="alternateBounds" />
          </mxGeometry>
        </mxCell>
        <mxCell id="maEfQ9gUSx-SkMScM4f4-124" value="favorites" style="shape=table;startSize=30;container=1;collapsible=1;childLayout=tableLayout;fixedRows=1;rowLines=0;fontStyle=1;align=center;resizeLast=1;rounded=0;shadow=0;sketch=0;strokeColor=default;strokeWidth=1;" vertex="1" parent="1">
          <mxGeometry x="-520" y="320" width="180" height="120" as="geometry" />
        </mxCell>
        <mxCell id="maEfQ9gUSx-SkMScM4f4-125" value="" style="shape=tableRow;horizontal=0;startSize=0;swimlaneHead=0;swimlaneBody=0;fillColor=none;collapsible=0;dropTarget=0;points=[[0,0.5],[1,0.5]];portConstraint=eastwest;top=0;left=0;right=0;bottom=1;rounded=0;shadow=0;sketch=0;strokeColor=default;strokeWidth=1;" vertex="1" parent="maEfQ9gUSx-SkMScM4f4-124">
          <mxGeometry y="30" width="180" height="30" as="geometry" />
        </mxCell>
        <mxCell id="maEfQ9gUSx-SkMScM4f4-126" value="PK" style="shape=partialRectangle;connectable=0;fillColor=none;top=0;left=0;bottom=0;right=0;fontStyle=1;overflow=hidden;rounded=0;shadow=0;sketch=0;strokeColor=default;strokeWidth=1;" vertex="1" parent="maEfQ9gUSx-SkMScM4f4-125">
          <mxGeometry width="30" height="30" as="geometry">
            <mxRectangle width="30" height="30" as="alternateBounds" />
          </mxGeometry>
        </mxCell>
        <mxCell id="maEfQ9gUSx-SkMScM4f4-127" value="お気に入りID" style="shape=partialRectangle;connectable=0;fillColor=none;top=0;left=0;bottom=0;right=0;align=left;spacingLeft=6;fontStyle=5;overflow=hidden;rounded=0;shadow=0;sketch=0;strokeColor=default;strokeWidth=1;" vertex="1" parent="maEfQ9gUSx-SkMScM4f4-125">
          <mxGeometry x="30" width="150" height="30" as="geometry">
            <mxRectangle width="150" height="30" as="alternateBounds" />
          </mxGeometry>
        </mxCell>
        <mxCell id="maEfQ9gUSx-SkMScM4f4-128" value="" style="shape=tableRow;horizontal=0;startSize=0;swimlaneHead=0;swimlaneBody=0;fillColor=none;collapsible=0;dropTarget=0;points=[[0,0.5],[1,0.5]];portConstraint=eastwest;top=0;left=0;right=0;bottom=0;rounded=0;shadow=0;sketch=0;strokeColor=default;strokeWidth=1;" vertex="1" parent="maEfQ9gUSx-SkMScM4f4-124">
          <mxGeometry y="60" width="180" height="30" as="geometry" />
        </mxCell>
        <mxCell id="maEfQ9gUSx-SkMScM4f4-129" value="FK1" style="shape=partialRectangle;connectable=0;fillColor=none;top=0;left=0;bottom=0;right=0;editable=1;overflow=hidden;rounded=0;shadow=0;sketch=0;strokeColor=default;strokeWidth=1;" vertex="1" parent="maEfQ9gUSx-SkMScM4f4-128">
          <mxGeometry width="30" height="30" as="geometry">
            <mxRectangle width="30" height="30" as="alternateBounds" />
          </mxGeometry>
        </mxCell>
        <mxCell id="maEfQ9gUSx-SkMScM4f4-130" value="ユーザーID" style="shape=partialRectangle;connectable=0;fillColor=none;top=0;left=0;bottom=0;right=0;align=left;spacingLeft=6;overflow=hidden;rounded=0;shadow=0;sketch=0;strokeColor=default;strokeWidth=1;" vertex="1" parent="maEfQ9gUSx-SkMScM4f4-128">
          <mxGeometry x="30" width="150" height="30" as="geometry">
            <mxRectangle width="150" height="30" as="alternateBounds" />
          </mxGeometry>
        </mxCell>
        <mxCell id="maEfQ9gUSx-SkMScM4f4-131" style="shape=tableRow;horizontal=0;startSize=0;swimlaneHead=0;swimlaneBody=0;fillColor=none;collapsible=0;dropTarget=0;points=[[0,0.5],[1,0.5]];portConstraint=eastwest;top=0;left=0;right=0;bottom=0;rounded=0;shadow=0;sketch=0;strokeColor=default;strokeWidth=1;" vertex="1" parent="maEfQ9gUSx-SkMScM4f4-124">
          <mxGeometry y="90" width="180" height="30" as="geometry" />
        </mxCell>
        <mxCell id="maEfQ9gUSx-SkMScM4f4-132" value="FK2" style="shape=partialRectangle;connectable=0;fillColor=none;top=0;left=0;bottom=0;right=0;editable=1;overflow=hidden;rounded=0;shadow=0;sketch=0;strokeColor=default;strokeWidth=1;" vertex="1" parent="maEfQ9gUSx-SkMScM4f4-131">
          <mxGeometry width="30" height="30" as="geometry">
            <mxRectangle width="30" height="30" as="alternateBounds" />
          </mxGeometry>
        </mxCell>
        <mxCell id="maEfQ9gUSx-SkMScM4f4-133" value="投稿ID" style="shape=partialRectangle;connectable=0;fillColor=none;top=0;left=0;bottom=0;right=0;align=left;spacingLeft=6;overflow=hidden;rounded=0;shadow=0;sketch=0;strokeColor=default;strokeWidth=1;" vertex="1" parent="maEfQ9gUSx-SkMScM4f4-131">
          <mxGeometry x="30" width="150" height="30" as="geometry">
            <mxRectangle width="150" height="30" as="alternateBounds" />
          </mxGeometry>
        </mxCell>
        <mxCell id="maEfQ9gUSx-SkMScM4f4-134" value="trash" style="shape=table;startSize=30;container=1;collapsible=1;childLayout=tableLayout;fixedRows=1;rowLines=0;fontStyle=1;align=center;resizeLast=1;rounded=0;shadow=0;sketch=0;strokeColor=default;strokeWidth=1;" vertex="1" parent="1">
          <mxGeometry x="-520" y="450" width="180" height="120" as="geometry" />
        </mxCell>
        <mxCell id="maEfQ9gUSx-SkMScM4f4-135" value="" style="shape=tableRow;horizontal=0;startSize=0;swimlaneHead=0;swimlaneBody=0;fillColor=none;collapsible=0;dropTarget=0;points=[[0,0.5],[1,0.5]];portConstraint=eastwest;top=0;left=0;right=0;bottom=1;rounded=0;shadow=0;sketch=0;strokeColor=default;strokeWidth=1;" vertex="1" parent="maEfQ9gUSx-SkMScM4f4-134">
          <mxGeometry y="30" width="180" height="30" as="geometry" />
        </mxCell>
        <mxCell id="maEfQ9gUSx-SkMScM4f4-136" value="PK" style="shape=partialRectangle;connectable=0;fillColor=none;top=0;left=0;bottom=0;right=0;fontStyle=1;overflow=hidden;rounded=0;shadow=0;sketch=0;strokeColor=default;strokeWidth=1;" vertex="1" parent="maEfQ9gUSx-SkMScM4f4-135">
          <mxGeometry width="30" height="30" as="geometry">
            <mxRectangle width="30" height="30" as="alternateBounds" />
          </mxGeometry>
        </mxCell>
        <mxCell id="maEfQ9gUSx-SkMScM4f4-137" value="ゴミ箱_ID" style="shape=partialRectangle;connectable=0;fillColor=none;top=0;left=0;bottom=0;right=0;align=left;spacingLeft=6;fontStyle=5;overflow=hidden;rounded=0;shadow=0;sketch=0;strokeColor=default;strokeWidth=1;" vertex="1" parent="maEfQ9gUSx-SkMScM4f4-135">
          <mxGeometry x="30" width="150" height="30" as="geometry">
            <mxRectangle width="150" height="30" as="alternateBounds" />
          </mxGeometry>
        </mxCell>
        <mxCell id="maEfQ9gUSx-SkMScM4f4-138" value="" style="shape=tableRow;horizontal=0;startSize=0;swimlaneHead=0;swimlaneBody=0;fillColor=none;collapsible=0;dropTarget=0;points=[[0,0.5],[1,0.5]];portConstraint=eastwest;top=0;left=0;right=0;bottom=0;rounded=0;shadow=0;sketch=0;strokeColor=default;strokeWidth=1;" vertex="1" parent="maEfQ9gUSx-SkMScM4f4-134">
          <mxGeometry y="60" width="180" height="30" as="geometry" />
        </mxCell>
        <mxCell id="maEfQ9gUSx-SkMScM4f4-139" value="FK1" style="shape=partialRectangle;connectable=0;fillColor=none;top=0;left=0;bottom=0;right=0;editable=1;overflow=hidden;rounded=0;shadow=0;sketch=0;strokeColor=default;strokeWidth=1;" vertex="1" parent="maEfQ9gUSx-SkMScM4f4-138">
          <mxGeometry width="30" height="30" as="geometry">
            <mxRectangle width="30" height="30" as="alternateBounds" />
          </mxGeometry>
        </mxCell>
        <mxCell id="maEfQ9gUSx-SkMScM4f4-140" value="ユーザーID" style="shape=partialRectangle;connectable=0;fillColor=none;top=0;left=0;bottom=0;right=0;align=left;spacingLeft=6;overflow=hidden;rounded=0;shadow=0;sketch=0;strokeColor=default;strokeWidth=1;" vertex="1" parent="maEfQ9gUSx-SkMScM4f4-138">
          <mxGeometry x="30" width="150" height="30" as="geometry">
            <mxRectangle width="150" height="30" as="alternateBounds" />
          </mxGeometry>
        </mxCell>
        <mxCell id="maEfQ9gUSx-SkMScM4f4-141" style="shape=tableRow;horizontal=0;startSize=0;swimlaneHead=0;swimlaneBody=0;fillColor=none;collapsible=0;dropTarget=0;points=[[0,0.5],[1,0.5]];portConstraint=eastwest;top=0;left=0;right=0;bottom=0;rounded=0;shadow=0;sketch=0;strokeColor=default;strokeWidth=1;" vertex="1" parent="maEfQ9gUSx-SkMScM4f4-134">
          <mxGeometry y="90" width="180" height="30" as="geometry" />
        </mxCell>
        <mxCell id="maEfQ9gUSx-SkMScM4f4-142" value="FK2" style="shape=partialRectangle;connectable=0;fillColor=none;top=0;left=0;bottom=0;right=0;editable=1;overflow=hidden;rounded=0;shadow=0;sketch=0;strokeColor=default;strokeWidth=1;" vertex="1" parent="maEfQ9gUSx-SkMScM4f4-141">
          <mxGeometry width="30" height="30" as="geometry">
            <mxRectangle width="30" height="30" as="alternateBounds" />
          </mxGeometry>
        </mxCell>
        <mxCell id="maEfQ9gUSx-SkMScM4f4-143" value="投稿ID" style="shape=partialRectangle;connectable=0;fillColor=none;top=0;left=0;bottom=0;right=0;align=left;spacingLeft=6;overflow=hidden;rounded=0;shadow=0;sketch=0;strokeColor=default;strokeWidth=1;" vertex="1" parent="maEfQ9gUSx-SkMScM4f4-141">
          <mxGeometry x="30" width="150" height="30" as="geometry">
            <mxRectangle width="150" height="30" as="alternateBounds" />
          </mxGeometry>
        </mxCell>
        <mxCell id="maEfQ9gUSx-SkMScM4f4-144" value="untrash" style="shape=table;startSize=30;container=1;collapsible=1;childLayout=tableLayout;fixedRows=1;rowLines=0;fontStyle=1;align=center;resizeLast=1;rounded=0;shadow=0;sketch=0;strokeColor=default;strokeWidth=1;" vertex="1" parent="1">
          <mxGeometry x="-520" y="580" width="180" height="120" as="geometry" />
        </mxCell>
        <mxCell id="maEfQ9gUSx-SkMScM4f4-145" value="" style="shape=tableRow;horizontal=0;startSize=0;swimlaneHead=0;swimlaneBody=0;fillColor=none;collapsible=0;dropTarget=0;points=[[0,0.5],[1,0.5]];portConstraint=eastwest;top=0;left=0;right=0;bottom=1;rounded=0;shadow=0;sketch=0;strokeColor=default;strokeWidth=1;" vertex="1" parent="maEfQ9gUSx-SkMScM4f4-144">
          <mxGeometry y="30" width="180" height="30" as="geometry" />
        </mxCell>
        <mxCell id="maEfQ9gUSx-SkMScM4f4-146" value="PK" style="shape=partialRectangle;connectable=0;fillColor=none;top=0;left=0;bottom=0;right=0;fontStyle=1;overflow=hidden;rounded=0;shadow=0;sketch=0;strokeColor=default;strokeWidth=1;" vertex="1" parent="maEfQ9gUSx-SkMScM4f4-145">
          <mxGeometry width="30" height="30" as="geometry">
            <mxRectangle width="30" height="30" as="alternateBounds" />
          </mxGeometry>
        </mxCell>
        <mxCell id="maEfQ9gUSx-SkMScM4f4-147" value="もったいない_ID" style="shape=partialRectangle;connectable=0;fillColor=none;top=0;left=0;bottom=0;right=0;align=left;spacingLeft=6;fontStyle=5;overflow=hidden;rounded=0;shadow=0;sketch=0;strokeColor=default;strokeWidth=1;" vertex="1" parent="maEfQ9gUSx-SkMScM4f4-145">
          <mxGeometry x="30" width="150" height="30" as="geometry">
            <mxRectangle width="150" height="30" as="alternateBounds" />
          </mxGeometry>
        </mxCell>
        <mxCell id="maEfQ9gUSx-SkMScM4f4-148" value="" style="shape=tableRow;horizontal=0;startSize=0;swimlaneHead=0;swimlaneBody=0;fillColor=none;collapsible=0;dropTarget=0;points=[[0,0.5],[1,0.5]];portConstraint=eastwest;top=0;left=0;right=0;bottom=0;rounded=0;shadow=0;sketch=0;strokeColor=default;strokeWidth=1;" vertex="1" parent="maEfQ9gUSx-SkMScM4f4-144">
          <mxGeometry y="60" width="180" height="30" as="geometry" />
        </mxCell>
        <mxCell id="maEfQ9gUSx-SkMScM4f4-149" value="FK1" style="shape=partialRectangle;connectable=0;fillColor=none;top=0;left=0;bottom=0;right=0;editable=1;overflow=hidden;rounded=0;shadow=0;sketch=0;strokeColor=default;strokeWidth=1;" vertex="1" parent="maEfQ9gUSx-SkMScM4f4-148">
          <mxGeometry width="30" height="30" as="geometry">
            <mxRectangle width="30" height="30" as="alternateBounds" />
          </mxGeometry>
        </mxCell>
        <mxCell id="maEfQ9gUSx-SkMScM4f4-150" value="ユーザーID" style="shape=partialRectangle;connectable=0;fillColor=none;top=0;left=0;bottom=0;right=0;align=left;spacingLeft=6;overflow=hidden;rounded=0;shadow=0;sketch=0;strokeColor=default;strokeWidth=1;" vertex="1" parent="maEfQ9gUSx-SkMScM4f4-148">
          <mxGeometry x="30" width="150" height="30" as="geometry">
            <mxRectangle width="150" height="30" as="alternateBounds" />
          </mxGeometry>
        </mxCell>
        <mxCell id="maEfQ9gUSx-SkMScM4f4-151" style="shape=tableRow;horizontal=0;startSize=0;swimlaneHead=0;swimlaneBody=0;fillColor=none;collapsible=0;dropTarget=0;points=[[0,0.5],[1,0.5]];portConstraint=eastwest;top=0;left=0;right=0;bottom=0;rounded=0;shadow=0;sketch=0;strokeColor=default;strokeWidth=1;" vertex="1" parent="maEfQ9gUSx-SkMScM4f4-144">
          <mxGeometry y="90" width="180" height="30" as="geometry" />
        </mxCell>
        <mxCell id="maEfQ9gUSx-SkMScM4f4-152" value="FK2" style="shape=partialRectangle;connectable=0;fillColor=none;top=0;left=0;bottom=0;right=0;editable=1;overflow=hidden;rounded=0;shadow=0;sketch=0;strokeColor=default;strokeWidth=1;" vertex="1" parent="maEfQ9gUSx-SkMScM4f4-151">
          <mxGeometry width="30" height="30" as="geometry">
            <mxRectangle width="30" height="30" as="alternateBounds" />
          </mxGeometry>
        </mxCell>
        <mxCell id="maEfQ9gUSx-SkMScM4f4-153" value="投稿ID" style="shape=partialRectangle;connectable=0;fillColor=none;top=0;left=0;bottom=0;right=0;align=left;spacingLeft=6;overflow=hidden;rounded=0;shadow=0;sketch=0;strokeColor=default;strokeWidth=1;" vertex="1" parent="maEfQ9gUSx-SkMScM4f4-151">
          <mxGeometry x="30" width="150" height="30" as="geometry">
            <mxRectangle width="150" height="30" as="alternateBounds" />
          </mxGeometry>
        </mxCell>
        <mxCell id="maEfQ9gUSx-SkMScM4f4-155" value="best_answers" style="shape=table;startSize=30;container=1;collapsible=1;childLayout=tableLayout;fixedRows=1;rowLines=0;fontStyle=1;align=center;resizeLast=1;rounded=0;shadow=0;sketch=0;strokeColor=default;strokeWidth=1;" vertex="1" parent="1">
          <mxGeometry x="-520" y="720" width="180" height="120" as="geometry" />
        </mxCell>
        <mxCell id="maEfQ9gUSx-SkMScM4f4-156" value="" style="shape=tableRow;horizontal=0;startSize=0;swimlaneHead=0;swimlaneBody=0;fillColor=none;collapsible=0;dropTarget=0;points=[[0,0.5],[1,0.5]];portConstraint=eastwest;top=0;left=0;right=0;bottom=1;rounded=0;shadow=0;sketch=0;strokeColor=default;strokeWidth=1;" vertex="1" parent="maEfQ9gUSx-SkMScM4f4-155">
          <mxGeometry y="30" width="180" height="30" as="geometry" />
        </mxCell>
        <mxCell id="maEfQ9gUSx-SkMScM4f4-157" value="PK" style="shape=partialRectangle;connectable=0;fillColor=none;top=0;left=0;bottom=0;right=0;fontStyle=1;overflow=hidden;rounded=0;shadow=0;sketch=0;strokeColor=default;strokeWidth=1;" vertex="1" parent="maEfQ9gUSx-SkMScM4f4-156">
          <mxGeometry width="30" height="30" as="geometry">
            <mxRectangle width="30" height="30" as="alternateBounds" />
          </mxGeometry>
        </mxCell>
        <mxCell id="maEfQ9gUSx-SkMScM4f4-158" value="ベストアンサー_ID" style="shape=partialRectangle;connectable=0;fillColor=none;top=0;left=0;bottom=0;right=0;align=left;spacingLeft=6;fontStyle=5;overflow=hidden;rounded=0;shadow=0;sketch=0;strokeColor=default;strokeWidth=1;" vertex="1" parent="maEfQ9gUSx-SkMScM4f4-156">
          <mxGeometry x="30" width="150" height="30" as="geometry">
            <mxRectangle width="150" height="30" as="alternateBounds" />
          </mxGeometry>
        </mxCell>
        <mxCell id="maEfQ9gUSx-SkMScM4f4-159" value="" style="shape=tableRow;horizontal=0;startSize=0;swimlaneHead=0;swimlaneBody=0;fillColor=none;collapsible=0;dropTarget=0;points=[[0,0.5],[1,0.5]];portConstraint=eastwest;top=0;left=0;right=0;bottom=0;rounded=0;shadow=0;sketch=0;strokeColor=default;strokeWidth=1;" vertex="1" parent="maEfQ9gUSx-SkMScM4f4-155">
          <mxGeometry y="60" width="180" height="30" as="geometry" />
        </mxCell>
        <mxCell id="maEfQ9gUSx-SkMScM4f4-160" value="FK1" style="shape=partialRectangle;connectable=0;fillColor=none;top=0;left=0;bottom=0;right=0;editable=1;overflow=hidden;rounded=0;shadow=0;sketch=0;strokeColor=default;strokeWidth=1;" vertex="1" parent="maEfQ9gUSx-SkMScM4f4-159">
          <mxGeometry width="30" height="30" as="geometry">
            <mxRectangle width="30" height="30" as="alternateBounds" />
          </mxGeometry>
        </mxCell>
        <mxCell id="maEfQ9gUSx-SkMScM4f4-161" value="ユーザーID" style="shape=partialRectangle;connectable=0;fillColor=none;top=0;left=0;bottom=0;right=0;align=left;spacingLeft=6;overflow=hidden;rounded=0;shadow=0;sketch=0;strokeColor=default;strokeWidth=1;" vertex="1" parent="maEfQ9gUSx-SkMScM4f4-159">
          <mxGeometry x="30" width="150" height="30" as="geometry">
            <mxRectangle width="150" height="30" as="alternateBounds" />
          </mxGeometry>
        </mxCell>
        <mxCell id="maEfQ9gUSx-SkMScM4f4-162" style="shape=tableRow;horizontal=0;startSize=0;swimlaneHead=0;swimlaneBody=0;fillColor=none;collapsible=0;dropTarget=0;points=[[0,0.5],[1,0.5]];portConstraint=eastwest;top=0;left=0;right=0;bottom=0;rounded=0;shadow=0;sketch=0;strokeColor=default;strokeWidth=1;" vertex="1" parent="maEfQ9gUSx-SkMScM4f4-155">
          <mxGeometry y="90" width="180" height="30" as="geometry" />
        </mxCell>
        <mxCell id="maEfQ9gUSx-SkMScM4f4-163" value="FK2" style="shape=partialRectangle;connectable=0;fillColor=none;top=0;left=0;bottom=0;right=0;editable=1;overflow=hidden;rounded=0;shadow=0;sketch=0;strokeColor=default;strokeWidth=1;" vertex="1" parent="maEfQ9gUSx-SkMScM4f4-162">
          <mxGeometry width="30" height="30" as="geometry">
            <mxRectangle width="30" height="30" as="alternateBounds" />
          </mxGeometry>
        </mxCell>
        <mxCell id="maEfQ9gUSx-SkMScM4f4-164" value="コメントID" style="shape=partialRectangle;connectable=0;fillColor=none;top=0;left=0;bottom=0;right=0;align=left;spacingLeft=6;overflow=hidden;rounded=0;shadow=0;sketch=0;strokeColor=default;strokeWidth=1;" vertex="1" parent="maEfQ9gUSx-SkMScM4f4-162">
          <mxGeometry x="30" width="150" height="30" as="geometry">
            <mxRectangle width="150" height="30" as="alternateBounds" />
          </mxGeometry>
        </mxCell>
        <mxCell id="maEfQ9gUSx-SkMScM4f4-165" value="comments" style="shape=table;startSize=30;container=1;collapsible=1;childLayout=tableLayout;fixedRows=1;rowLines=0;fontStyle=1;align=center;resizeLast=1;rounded=0;shadow=0;sketch=0;strokeColor=default;strokeWidth=1;" vertex="1" parent="1">
          <mxGeometry x="-290" y="780" width="180" height="180" as="geometry" />
        </mxCell>
        <mxCell id="maEfQ9gUSx-SkMScM4f4-166" value="" style="shape=tableRow;horizontal=0;startSize=0;swimlaneHead=0;swimlaneBody=0;fillColor=none;collapsible=0;dropTarget=0;points=[[0,0.5],[1,0.5]];portConstraint=eastwest;top=0;left=0;right=0;bottom=1;rounded=0;shadow=0;sketch=0;strokeColor=default;strokeWidth=1;" vertex="1" parent="maEfQ9gUSx-SkMScM4f4-165">
          <mxGeometry y="30" width="180" height="30" as="geometry" />
        </mxCell>
        <mxCell id="maEfQ9gUSx-SkMScM4f4-167" value="PK" style="shape=partialRectangle;connectable=0;fillColor=none;top=0;left=0;bottom=0;right=0;fontStyle=1;overflow=hidden;rounded=0;shadow=0;sketch=0;strokeColor=default;strokeWidth=1;" vertex="1" parent="maEfQ9gUSx-SkMScM4f4-166">
          <mxGeometry width="30" height="30" as="geometry">
            <mxRectangle width="30" height="30" as="alternateBounds" />
          </mxGeometry>
        </mxCell>
        <mxCell id="maEfQ9gUSx-SkMScM4f4-168" value="コメントID" style="shape=partialRectangle;connectable=0;fillColor=none;top=0;left=0;bottom=0;right=0;align=left;spacingLeft=6;fontStyle=5;overflow=hidden;rounded=0;shadow=0;sketch=0;strokeColor=default;strokeWidth=1;" vertex="1" parent="maEfQ9gUSx-SkMScM4f4-166">
          <mxGeometry x="30" width="150" height="30" as="geometry">
            <mxRectangle width="150" height="30" as="alternateBounds" />
          </mxGeometry>
        </mxCell>
        <mxCell id="maEfQ9gUSx-SkMScM4f4-169" value="" style="shape=tableRow;horizontal=0;startSize=0;swimlaneHead=0;swimlaneBody=0;fillColor=none;collapsible=0;dropTarget=0;points=[[0,0.5],[1,0.5]];portConstraint=eastwest;top=0;left=0;right=0;bottom=0;rounded=0;shadow=0;sketch=0;strokeColor=default;strokeWidth=1;" vertex="1" parent="maEfQ9gUSx-SkMScM4f4-165">
          <mxGeometry y="60" width="180" height="30" as="geometry" />
        </mxCell>
        <mxCell id="maEfQ9gUSx-SkMScM4f4-170" value="FK1" style="shape=partialRectangle;connectable=0;fillColor=none;top=0;left=0;bottom=0;right=0;editable=1;overflow=hidden;rounded=0;shadow=0;sketch=0;strokeColor=default;strokeWidth=1;" vertex="1" parent="maEfQ9gUSx-SkMScM4f4-169">
          <mxGeometry width="30" height="30" as="geometry">
            <mxRectangle width="30" height="30" as="alternateBounds" />
          </mxGeometry>
        </mxCell>
        <mxCell id="maEfQ9gUSx-SkMScM4f4-171" value="ユーザー_ID" style="shape=partialRectangle;connectable=0;fillColor=none;top=0;left=0;bottom=0;right=0;align=left;spacingLeft=6;overflow=hidden;rounded=0;shadow=0;sketch=0;strokeColor=default;strokeWidth=1;" vertex="1" parent="maEfQ9gUSx-SkMScM4f4-169">
          <mxGeometry x="30" width="150" height="30" as="geometry">
            <mxRectangle width="150" height="30" as="alternateBounds" />
          </mxGeometry>
        </mxCell>
        <mxCell id="maEfQ9gUSx-SkMScM4f4-172" value="" style="shape=tableRow;horizontal=0;startSize=0;swimlaneHead=0;swimlaneBody=0;fillColor=none;collapsible=0;dropTarget=0;points=[[0,0.5],[1,0.5]];portConstraint=eastwest;top=0;left=0;right=0;bottom=0;rounded=0;shadow=0;sketch=0;strokeColor=default;strokeWidth=1;" vertex="1" parent="maEfQ9gUSx-SkMScM4f4-165">
          <mxGeometry y="90" width="180" height="30" as="geometry" />
        </mxCell>
        <mxCell id="maEfQ9gUSx-SkMScM4f4-173" value="FK2" style="shape=partialRectangle;connectable=0;fillColor=none;top=0;left=0;bottom=0;right=0;editable=1;overflow=hidden;rounded=0;shadow=0;sketch=0;strokeColor=default;strokeWidth=1;" vertex="1" parent="maEfQ9gUSx-SkMScM4f4-172">
          <mxGeometry width="30" height="30" as="geometry">
            <mxRectangle width="30" height="30" as="alternateBounds" />
          </mxGeometry>
        </mxCell>
        <mxCell id="maEfQ9gUSx-SkMScM4f4-174" value="投稿_ID" style="shape=partialRectangle;connectable=0;fillColor=none;top=0;left=0;bottom=0;right=0;align=left;spacingLeft=6;overflow=hidden;rounded=0;shadow=0;sketch=0;strokeColor=default;strokeWidth=1;" vertex="1" parent="maEfQ9gUSx-SkMScM4f4-172">
          <mxGeometry x="30" width="150" height="30" as="geometry">
            <mxRectangle width="150" height="30" as="alternateBounds" />
          </mxGeometry>
        </mxCell>
        <mxCell id="maEfQ9gUSx-SkMScM4f4-175" style="shape=tableRow;horizontal=0;startSize=0;swimlaneHead=0;swimlaneBody=0;fillColor=none;collapsible=0;dropTarget=0;points=[[0,0.5],[1,0.5]];portConstraint=eastwest;top=0;left=0;right=0;bottom=0;rounded=0;shadow=0;sketch=0;strokeColor=default;strokeWidth=1;" vertex="1" parent="maEfQ9gUSx-SkMScM4f4-165">
          <mxGeometry y="120" width="180" height="30" as="geometry" />
        </mxCell>
        <mxCell id="maEfQ9gUSx-SkMScM4f4-176" style="shape=partialRectangle;connectable=0;fillColor=none;top=0;left=0;bottom=0;right=0;editable=1;overflow=hidden;rounded=0;shadow=0;sketch=0;strokeColor=default;strokeWidth=1;" vertex="1" parent="maEfQ9gUSx-SkMScM4f4-175">
          <mxGeometry width="30" height="30" as="geometry">
            <mxRectangle width="30" height="30" as="alternateBounds" />
          </mxGeometry>
        </mxCell>
        <mxCell id="maEfQ9gUSx-SkMScM4f4-177" value="コメント内容" style="shape=partialRectangle;connectable=0;fillColor=none;top=0;left=0;bottom=0;right=0;align=left;spacingLeft=6;overflow=hidden;rounded=0;shadow=0;sketch=0;strokeColor=default;strokeWidth=1;" vertex="1" parent="maEfQ9gUSx-SkMScM4f4-175">
          <mxGeometry x="30" width="150" height="30" as="geometry">
            <mxRectangle width="150" height="30" as="alternateBounds" />
          </mxGeometry>
        </mxCell>
        <mxCell id="maEfQ9gUSx-SkMScM4f4-187" style="shape=tableRow;horizontal=0;startSize=0;swimlaneHead=0;swimlaneBody=0;fillColor=none;collapsible=0;dropTarget=0;points=[[0,0.5],[1,0.5]];portConstraint=eastwest;top=0;left=0;right=0;bottom=0;rounded=0;shadow=0;sketch=0;strokeColor=default;strokeWidth=1;" vertex="1" parent="maEfQ9gUSx-SkMScM4f4-165">
          <mxGeometry y="150" width="180" height="30" as="geometry" />
        </mxCell>
        <mxCell id="maEfQ9gUSx-SkMScM4f4-188" style="shape=partialRectangle;connectable=0;fillColor=none;top=0;left=0;bottom=0;right=0;editable=1;overflow=hidden;rounded=0;shadow=0;sketch=0;strokeColor=default;strokeWidth=1;" vertex="1" parent="maEfQ9gUSx-SkMScM4f4-187">
          <mxGeometry width="30" height="30" as="geometry">
            <mxRectangle width="30" height="30" as="alternateBounds" />
          </mxGeometry>
        </mxCell>
        <mxCell id="maEfQ9gUSx-SkMScM4f4-189" value="コメントステータス" style="shape=partialRectangle;connectable=0;fillColor=none;top=0;left=0;bottom=0;right=0;align=left;spacingLeft=6;overflow=hidden;rounded=0;shadow=0;sketch=0;strokeColor=default;strokeWidth=1;" vertex="1" parent="maEfQ9gUSx-SkMScM4f4-187">
          <mxGeometry x="30" width="150" height="30" as="geometry">
            <mxRectangle width="150" height="30" as="alternateBounds" />
          </mxGeometry>
        </mxCell>
        <mxCell id="maEfQ9gUSx-SkMScM4f4-190" style="edgeStyle=orthogonalEdgeStyle;rounded=0;orthogonalLoop=1;jettySize=auto;html=1;exitX=1;exitY=0.5;exitDx=0;exitDy=0;entryX=0;entryY=0.5;entryDx=0;entryDy=0;endArrow=ERmany;endFill=0;" edge="1" parent="1" source="maEfQ9gUSx-SkMScM4f4-46" target="maEfQ9gUSx-SkMScM4f4-84">
          <mxGeometry relative="1" as="geometry">
            <Array as="points">
              <mxPoint x="-600" y="115" />
              <mxPoint x="-600" y="115" />
            </Array>
          </mxGeometry>
        </mxCell>
        <mxCell id="maEfQ9gUSx-SkMScM4f4-191" style="edgeStyle=orthogonalEdgeStyle;rounded=0;orthogonalLoop=1;jettySize=auto;html=1;exitX=1;exitY=0.5;exitDx=0;exitDy=0;entryX=0;entryY=0.5;entryDx=0;entryDy=0;endArrow=ERmany;endFill=0;" edge="1" parent="1" source="maEfQ9gUSx-SkMScM4f4-46" target="maEfQ9gUSx-SkMScM4f4-128">
          <mxGeometry relative="1" as="geometry" />
        </mxCell>
        <mxCell id="maEfQ9gUSx-SkMScM4f4-192" style="edgeStyle=orthogonalEdgeStyle;rounded=0;orthogonalLoop=1;jettySize=auto;html=1;entryX=0;entryY=0.5;entryDx=0;entryDy=0;endArrow=ERmany;endFill=0;" edge="1" parent="1" source="maEfQ9gUSx-SkMScM4f4-46" target="maEfQ9gUSx-SkMScM4f4-138">
          <mxGeometry relative="1" as="geometry" />
        </mxCell>
        <mxCell id="maEfQ9gUSx-SkMScM4f4-193" style="edgeStyle=orthogonalEdgeStyle;rounded=0;orthogonalLoop=1;jettySize=auto;html=1;entryX=0;entryY=0.5;entryDx=0;entryDy=0;endArrow=ERmany;endFill=0;" edge="1" parent="1" source="maEfQ9gUSx-SkMScM4f4-46" target="maEfQ9gUSx-SkMScM4f4-148">
          <mxGeometry relative="1" as="geometry" />
        </mxCell>
        <mxCell id="maEfQ9gUSx-SkMScM4f4-195" style="edgeStyle=orthogonalEdgeStyle;rounded=0;orthogonalLoop=1;jettySize=auto;html=1;entryX=1;entryY=0.5;entryDx=0;entryDy=0;endArrow=ERmany;endFill=0;" edge="1" parent="1" source="maEfQ9gUSx-SkMScM4f4-81" target="maEfQ9gUSx-SkMScM4f4-131">
          <mxGeometry relative="1" as="geometry">
            <Array as="points">
              <mxPoint x="-80" y="85" />
              <mxPoint x="-80" y="425" />
            </Array>
          </mxGeometry>
        </mxCell>
        <mxCell id="maEfQ9gUSx-SkMScM4f4-197" style="edgeStyle=orthogonalEdgeStyle;rounded=0;orthogonalLoop=1;jettySize=auto;html=1;entryX=1;entryY=0.5;entryDx=0;entryDy=0;endArrow=ERmany;endFill=0;" edge="1" parent="1" source="maEfQ9gUSx-SkMScM4f4-81" target="maEfQ9gUSx-SkMScM4f4-141">
          <mxGeometry relative="1" as="geometry">
            <Array as="points">
              <mxPoint x="-80" y="85" />
              <mxPoint x="-80" y="555" />
            </Array>
          </mxGeometry>
        </mxCell>
        <mxCell id="maEfQ9gUSx-SkMScM4f4-198" style="edgeStyle=orthogonalEdgeStyle;rounded=0;orthogonalLoop=1;jettySize=auto;html=1;entryX=1;entryY=0.5;entryDx=0;entryDy=0;endArrow=ERmany;endFill=0;" edge="1" parent="1" source="maEfQ9gUSx-SkMScM4f4-81" target="maEfQ9gUSx-SkMScM4f4-151">
          <mxGeometry relative="1" as="geometry">
            <Array as="points">
              <mxPoint x="-80" y="85" />
              <mxPoint x="-80" y="685" />
            </Array>
          </mxGeometry>
        </mxCell>
        <mxCell id="maEfQ9gUSx-SkMScM4f4-200" style="edgeStyle=orthogonalEdgeStyle;rounded=0;orthogonalLoop=1;jettySize=auto;html=1;entryX=0;entryY=0.5;entryDx=0;entryDy=0;endArrow=ERmany;endFill=0;" edge="1" parent="1" source="maEfQ9gUSx-SkMScM4f4-46" target="maEfQ9gUSx-SkMScM4f4-159">
          <mxGeometry relative="1" as="geometry" />
        </mxCell>
        <mxCell id="maEfQ9gUSx-SkMScM4f4-201" style="edgeStyle=orthogonalEdgeStyle;rounded=0;orthogonalLoop=1;jettySize=auto;html=1;endArrow=ERmany;endFill=0;" edge="1" parent="1" source="maEfQ9gUSx-SkMScM4f4-81" target="maEfQ9gUSx-SkMScM4f4-172">
          <mxGeometry relative="1" as="geometry">
            <Array as="points">
              <mxPoint x="-80" y="85" />
              <mxPoint x="-80" y="890" />
            </Array>
          </mxGeometry>
        </mxCell>
        <mxCell id="maEfQ9gUSx-SkMScM4f4-202" style="edgeStyle=orthogonalEdgeStyle;rounded=0;orthogonalLoop=1;jettySize=auto;html=1;" edge="1" parent="1" source="maEfQ9gUSx-SkMScM4f4-166" target="maEfQ9gUSx-SkMScM4f4-162">
          <mxGeometry relative="1" as="geometry" />
        </mxCell>
        <mxCell id="maEfQ9gUSx-SkMScM4f4-203" style="edgeStyle=orthogonalEdgeStyle;rounded=0;orthogonalLoop=1;jettySize=auto;html=1;endArrow=ERmany;endFill=0;" edge="1" parent="1" source="maEfQ9gUSx-SkMScM4f4-46" target="maEfQ9gUSx-SkMScM4f4-169">
          <mxGeometry relative="1" as="geometry">
            <Array as="points">
              <mxPoint x="-570" y="115" />
              <mxPoint x="-570" y="855" />
            </Array>
          </mxGeometry>
        </mxCell>
        <mxCell id="maEfQ9gUSx-SkMScM4f4-205" value="post_categories" style="shape=table;startSize=30;container=1;collapsible=1;childLayout=tableLayout;fixedRows=1;rowLines=0;fontStyle=1;align=center;resizeLast=1;rounded=0;shadow=0;sketch=0;strokeColor=default;strokeWidth=1;" vertex="1" parent="1">
          <mxGeometry x="-30" y="10" width="180" height="120" as="geometry" />
        </mxCell>
        <mxCell id="maEfQ9gUSx-SkMScM4f4-206" value="" style="shape=tableRow;horizontal=0;startSize=0;swimlaneHead=0;swimlaneBody=0;fillColor=none;collapsible=0;dropTarget=0;points=[[0,0.5],[1,0.5]];portConstraint=eastwest;top=0;left=0;right=0;bottom=1;rounded=0;shadow=0;sketch=0;strokeColor=default;strokeWidth=1;" vertex="1" parent="maEfQ9gUSx-SkMScM4f4-205">
          <mxGeometry y="30" width="180" height="30" as="geometry" />
        </mxCell>
        <mxCell id="maEfQ9gUSx-SkMScM4f4-207" value="PK" style="shape=partialRectangle;connectable=0;fillColor=none;top=0;left=0;bottom=0;right=0;fontStyle=1;overflow=hidden;rounded=0;shadow=0;sketch=0;strokeColor=default;strokeWidth=1;" vertex="1" parent="maEfQ9gUSx-SkMScM4f4-206">
          <mxGeometry width="30" height="30" as="geometry">
            <mxRectangle width="30" height="30" as="alternateBounds" />
          </mxGeometry>
        </mxCell>
        <mxCell id="maEfQ9gUSx-SkMScM4f4-208" value="投稿_カテゴリーID" style="shape=partialRectangle;connectable=0;fillColor=none;top=0;left=0;bottom=0;right=0;align=left;spacingLeft=6;fontStyle=5;overflow=hidden;rounded=0;shadow=0;sketch=0;strokeColor=default;strokeWidth=1;" vertex="1" parent="maEfQ9gUSx-SkMScM4f4-206">
          <mxGeometry x="30" width="150" height="30" as="geometry">
            <mxRectangle width="150" height="30" as="alternateBounds" />
          </mxGeometry>
        </mxCell>
        <mxCell id="maEfQ9gUSx-SkMScM4f4-209" value="" style="shape=tableRow;horizontal=0;startSize=0;swimlaneHead=0;swimlaneBody=0;fillColor=none;collapsible=0;dropTarget=0;points=[[0,0.5],[1,0.5]];portConstraint=eastwest;top=0;left=0;right=0;bottom=0;rounded=0;shadow=0;sketch=0;strokeColor=default;strokeWidth=1;" vertex="1" parent="maEfQ9gUSx-SkMScM4f4-205">
          <mxGeometry y="60" width="180" height="30" as="geometry" />
        </mxCell>
        <mxCell id="maEfQ9gUSx-SkMScM4f4-210" value="" style="shape=partialRectangle;connectable=0;fillColor=none;top=0;left=0;bottom=0;right=0;editable=1;overflow=hidden;rounded=0;shadow=0;sketch=0;strokeColor=default;strokeWidth=1;" vertex="1" parent="maEfQ9gUSx-SkMScM4f4-209">
          <mxGeometry width="30" height="30" as="geometry">
            <mxRectangle width="30" height="30" as="alternateBounds" />
          </mxGeometry>
        </mxCell>
        <mxCell id="maEfQ9gUSx-SkMScM4f4-211" value="投稿_ID" style="shape=partialRectangle;connectable=0;fillColor=none;top=0;left=0;bottom=0;right=0;align=left;spacingLeft=6;overflow=hidden;rounded=0;shadow=0;sketch=0;strokeColor=default;strokeWidth=1;" vertex="1" parent="maEfQ9gUSx-SkMScM4f4-209">
          <mxGeometry x="30" width="150" height="30" as="geometry">
            <mxRectangle width="150" height="30" as="alternateBounds" />
          </mxGeometry>
        </mxCell>
        <mxCell id="maEfQ9gUSx-SkMScM4f4-212" style="shape=tableRow;horizontal=0;startSize=0;swimlaneHead=0;swimlaneBody=0;fillColor=none;collapsible=0;dropTarget=0;points=[[0,0.5],[1,0.5]];portConstraint=eastwest;top=0;left=0;right=0;bottom=0;rounded=0;shadow=0;sketch=0;strokeColor=default;strokeWidth=1;" vertex="1" parent="maEfQ9gUSx-SkMScM4f4-205">
          <mxGeometry y="90" width="180" height="30" as="geometry" />
        </mxCell>
        <mxCell id="maEfQ9gUSx-SkMScM4f4-213" style="shape=partialRectangle;connectable=0;fillColor=none;top=0;left=0;bottom=0;right=0;editable=1;overflow=hidden;rounded=0;shadow=0;sketch=0;strokeColor=default;strokeWidth=1;" vertex="1" parent="maEfQ9gUSx-SkMScM4f4-212">
          <mxGeometry width="30" height="30" as="geometry">
            <mxRectangle width="30" height="30" as="alternateBounds" />
          </mxGeometry>
        </mxCell>
        <mxCell id="maEfQ9gUSx-SkMScM4f4-214" value="カテゴリー_ID" style="shape=partialRectangle;connectable=0;fillColor=none;top=0;left=0;bottom=0;right=0;align=left;spacingLeft=6;overflow=hidden;rounded=0;shadow=0;sketch=0;strokeColor=default;strokeWidth=1;" vertex="1" parent="maEfQ9gUSx-SkMScM4f4-212">
          <mxGeometry x="30" width="150" height="30" as="geometry">
            <mxRectangle width="150" height="30" as="alternateBounds" />
          </mxGeometry>
        </mxCell>
        <mxCell id="maEfQ9gUSx-SkMScM4f4-216" style="edgeStyle=orthogonalEdgeStyle;rounded=0;orthogonalLoop=1;jettySize=auto;html=1;endArrow=ERmany;endFill=0;" edge="1" parent="1" source="maEfQ9gUSx-SkMScM4f4-81" target="maEfQ9gUSx-SkMScM4f4-209">
          <mxGeometry relative="1" as="geometry">
            <Array as="points">
              <mxPoint x="-50" y="85" />
              <mxPoint x="-50" y="85" />
            </Array>
          </mxGeometry>
        </mxCell>
      </root>
    </mxGraphModel>
  </diagram>
</mxfile>
